<svg xmlns="http://www.w3.org/2000/svg" viewBox="0 0 1200 746" width="1200" height="746" role="img" aria-labelledby="pmv-tool-calls-narrow-title pmv-tool-calls-narrow-desc" font-family="system-ui, -apple-system, &quot;Segoe UI&quot;, Roboto, Helvetica, Arial, sans-serif">
<title id="pmv-tool-calls-narrow-title">Three questions for every tool call</title>
<desc id="pmv-tool-calls-narrow-desc">Three questions for every tool call, shown on one example. The customer asks: The outage took us down for two days. Can I get a credit? The agent calls the tool issue_credit with account_id A-1182 and amount 80. The tool returns status pending_approval. The agent replies: Done! $80 is off your next bill. Policy sits on the call: allowed, verified, confirmed, under the limit? Here it fails, because a credit over $50 needs a supervisor. It is checked with a code check of policy rules. Relevance spans the request and the call: right tool, right details for what they asked? It is checked with a code check that uses an intent map, or with an AI judge. Output grounding spans the tool result and the reply: does the reply match what the tool returned? Here it fails, because a pending credit is shown as done. It is checked with a code check of the values, then an AI judge. Policy rules come from your company. Relevance and grounding problems show up when you read traces.</desc>
<rect x="0.5" y="0.5" width="1199" height="745" rx="20" style="fill:#FFFFFF;stroke:#E2DFD8" stroke-width="1"/>
<text x="32" y="68" font-size="40" font-weight="700" style="fill:#16191D"><tspan x="32">Three questions</tspan><tspan x="32" dy="46">for every tool call</tspan></text>
<text x="32" y="148" font-size="22" style="fill:#4A525C"><tspan x="32">Policy, relevance, and output grounding</tspan><tspan x="32" dy="28">checks for agents that use tools.</tspan></text>
<path d="M32 201h10v13a5 5 0 0 1 -10 0Z" style="fill:#BE3E29"/>
<text x="52" y="216" font-size="18" style="fill:#4A525C">Failure mode</text>
<rect x="191.2" y="202" width="30" height="16" rx="8" style="fill:#F0EEE8;stroke:#646B73" stroke-width="1.3"/>
<text x="231.2" y="216" font-size="18" style="fill:#4A525C">Check</text>
<g transform="translate(0 126)">
<rect x="32" y="280" width="260" height="128" rx="12" style="fill:#F0EEE8;stroke:#E2DFD8" stroke-width="1.2"/>
<text x="48" y="308" font-size="18" font-weight="600" style="fill:#4A525C">Customer asks</text>
<path d="M48 320L276 320" style="fill:none;stroke:#E2DFD8" stroke-width="1.2" stroke-linecap="round"/>
<text x="48" y="346" font-size="18" style="fill:#16191D"><tspan x="48">The outage took us down</tspan><tspan x="48" dy="24">for two days. Can I get a</tspan><tspan x="48" dy="24">credit?</tspan></text>
<path d="M297 344L316 344" style="fill:none;stroke:#646B73" stroke-width="1.8" stroke-linecap="round"/>
<path d="M320 344L311 349L311 339.1Z" style="fill:#646B73"/>
<rect x="324" y="280" width="260" height="128" rx="12" style="fill:#F0EEE8;stroke:#E2DFD8" stroke-width="1.2"/>
<text x="340" y="308" font-size="18" font-weight="600" style="fill:#4A525C">Agent calls a tool</text>
<path d="M340 320L568 320" style="fill:none;stroke:#E2DFD8" stroke-width="1.2" stroke-linecap="round"/>
<rect x="334" y="376" width="120" height="25" rx="5" style="fill:#FBE7E2"/>
<path d="M336 400L452 400" style="fill:none;stroke:#BE3E29" stroke-width="2" stroke-linecap="round"/>
<text x="340" y="346" font-size="18" font-weight="700" font-family="ui-monospace, SFMono-Regular, Menlo, Consolas, &quot;Liberation Mono&quot;, monospace" style="fill:#16191D">issue_credit</text>
<text x="340" y="370" font-size="18" font-family="ui-monospace, SFMono-Regular, Menlo, Consolas, &quot;Liberation Mono&quot;, monospace" style="fill:#16191D">account_id: A-1182</text>
<text x="340" y="394" font-size="18" font-family="ui-monospace, SFMono-Regular, Menlo, Consolas, &quot;Liberation Mono&quot;, monospace" style="fill:#16191D">amount: 80</text>
<path d="M589 344L608 344" style="fill:none;stroke:#646B73" stroke-width="1.8" stroke-linecap="round"/>
<path d="M612 344L603 349L603 339.1Z" style="fill:#646B73"/>
<rect x="616" y="280" width="260" height="128" rx="12" style="fill:#F0EEE8;stroke:#E2DFD8" stroke-width="1.2"/>
<text x="632" y="308" font-size="18" font-weight="600" style="fill:#4A525C">Tool returns</text>
<path d="M632 320L860 320" style="fill:none;stroke:#E2DFD8" stroke-width="1.2" stroke-linecap="round"/>
<text x="632" y="346" font-size="18" font-family="ui-monospace, SFMono-Regular, Menlo, Consolas, &quot;Liberation Mono&quot;, monospace" style="fill:#16191D">status:</text>
<text x="632" y="370" font-size="18" font-weight="700" font-family="ui-monospace, SFMono-Regular, Menlo, Consolas, &quot;Liberation Mono&quot;, monospace" style="fill:#16191D">pending_approval</text>
<path d="M881 344L900 344" style="fill:none;stroke:#646B73" stroke-width="1.8" stroke-linecap="round"/>
<path d="M904 344L895 349L895 339.1Z" style="fill:#646B73"/>
<rect x="908" y="280" width="260" height="128" rx="12" style="fill:#F0EEE8;stroke:#E2DFD8" stroke-width="1.2"/>
<text x="924" y="308" font-size="18" font-weight="600" style="fill:#4A525C">Agent replies</text>
<path d="M924 320L1152 320" style="fill:none;stroke:#E2DFD8" stroke-width="1.2" stroke-linecap="round"/>
<rect x="919" y="328" width="61" height="25" rx="5" style="fill:#FBE7E2"/>
<path d="M921 352L978 352" style="fill:none;stroke:#BE3E29" stroke-width="2" stroke-linecap="round"/>
<text x="924" y="346" font-size="18" style="fill:#16191D"><tspan x="924"><tspan font-weight="600">Done!</tspan> $80 is off your</tspan><tspan x="924" dy="24">next bill.</tspan></text>
<text x="454" y="150" font-size="20" font-weight="700" text-anchor="middle" style="fill:#16191D">Policy</text>
<text x="454" y="178" font-size="18" text-anchor="middle" style="fill:#4A525C">Allowed? Verified? Confirmed? Under the limit?</text>
<rect x="327.7" y="192" width="252.6" height="34" rx="17" style="fill:#F0EEE8;stroke:#646B73;stroke-opacity:0.55" stroke-width="1.2"/>
<text x="454" y="215.3" font-size="18" font-weight="600" text-anchor="middle" style="fill:#16191D">Code check: policy rules</text>
<path d="M321.4 232h10v13a5 5 0 0 1 -10 0Z" style="fill:#BE3E29"/>
<text x="341.4" y="247" font-size="18" font-weight="600" style="fill:#BE3E29">Over $50 needs a supervisor</text>
<path d="M334 272V264H574V272M454 264V256" style="fill:none;stroke:#646B73" stroke-width="1.8" stroke-linecap="round" stroke-linejoin="round"/>
<path d="M42 416V424H574V416M308 424V432" style="fill:none;stroke:#646B73" stroke-width="1.8" stroke-linecap="round" stroke-linejoin="round"/>
<text x="308" y="464" font-size="20" font-weight="700" text-anchor="middle" style="fill:#16191D">Relevance</text>
<text x="308" y="492" font-size="18" text-anchor="middle" style="fill:#4A525C">Right tool, right details for what they asked?</text>
<rect x="132.3" y="506" width="351.3" height="34" rx="17" style="fill:#F0EEE8;stroke:#646B73;stroke-opacity:0.55" stroke-width="1.2"/>
<text x="308" y="529.3" font-size="18" font-weight="600" text-anchor="middle" style="fill:#16191D">Code check: intent map, or AI judge</text>
<path d="M626 416V424H1158V416M892 424V432" style="fill:none;stroke:#646B73" stroke-width="1.8" stroke-linecap="round" stroke-linejoin="round"/>
<text x="892" y="464" font-size="20" font-weight="700" text-anchor="middle" style="fill:#16191D">Output grounding</text>
<text x="892" y="492" font-size="18" text-anchor="middle" style="fill:#4A525C">Does the reply match what the tool returned?</text>
<rect x="724.1" y="506" width="335.8" height="34" rx="17" style="fill:#F0EEE8;stroke:#646B73;stroke-opacity:0.55" stroke-width="1.2"/>
<text x="892" y="529.3" font-size="18" font-weight="600" text-anchor="middle" style="fill:#16191D">Code check: values, then AI judge</text>
<path d="M779 549h10v13a5 5 0 0 1 -10 0Z" style="fill:#BE3E29"/>
<text x="799" y="564" font-size="18" font-weight="600" style="fill:#BE3E29">Pending shown as done</text>
<text x="32" y="600" font-size="18" style="fill:#4A525C">Policy rules come from your company. Relevance and grounding problems show up when you read traces.</text>
</g>
</svg>
